<?xml version="1.0" encoding="utf-8"?>
<!-- Uploaded to: SVG Repo, www.svgrepo.com, Generator: SVG Repo Mixer Tools -->
<svg fill="#000000" height="800px" width="800px" version="1.1" id="Layer_1" xmlns="http://www.w3.org/2000/svg" xmlns:xlink="http://www.w3.org/1999/xlink" 
	 viewBox="0 0 157 256" xml:space="preserve">
<path d="M129.7,31.6H92.7c-6.6-0.1-6.4,9.8,0,9.8h36.9v4.9H92.9c-6.7,0-6.5,9.8,0,9.8h36.8v4.9v0.2H92.9c-6.7,0-6.5,9.9,0,9.9h36.8
	v4.9H92.9c-6.6,0-6.5,9.8,0,9.8h36.8v4.9H92.9c-6.6,0-6.6,9.9,0,9.8h36.8v5H92.9c-6.6-0.1-6.6,9.8,0,9.8h36.8v4.9H92.9
	c-6.6,0-6.6,9.8,0,9.8h36.8v4.9H92.9c-6.6,0-6.5,9.9,0,9.9h36.8v95.5c-0.1,14.6,22.2,14.4,22.2,0V16.9c0-6.6-5.5-15-14.6-15
	L92.7,1.8c-6.6,0.1-6.4,9.9,0,9.9h36.9v4.9H92.7c-6.6,0-6.4,9.9,0,9.8h36.9V31.6L129.7,31.6z"/>
<path d="M87,224.6c-1.3,8.1,1.5,22.6,7.2,27.9c6,5.5,13.1-1.5,10.2-7.2c-3-5.6-6.7-8.7-3.6-22.1L87,224.6L87,224.6z"/>
<path d="M30.1,201"/>
<path d="M75.2,177.5v-65.1L62.9,5.3c-0.4-2.9-2.1-3.6-3.8-3.6c-1.6,0-3.4,0.6-3.7,3.6l-12,107.1v65.1c-22.7-11.8-39.7,6.6-39.8,23.3
	c0.1,14.9,11.1,27.2,26.8,27.2c15.7-0.1,26.4-13.8,26.4-27.2v-65.4h5v65.4c0,15.5,12.6,27,26,27c16.9,0,27.6-11.9,27.6-26.9
	C115.5,184,97.9,165.7,75.2,177.5z M30.1,214.4c-7.4,0-13.3-6-13.4-13.4c0.1-7.3,6-13.3,13.4-13.3c7.4,0,13.4,5.9,13.4,13.3
	C43.5,208.4,37.5,214.4,30.1,214.4z M88.9,214.4c-7.3,0-13.3-6-13.3-13.4c0-7.3,5.9-13.3,13.3-13.3c7.4,0,13.4,5.9,13.4,13.3
	C102.3,208.4,96.4,214.4,88.9,214.4z"/>
<path d="M88.9,201"/>
</svg>