<?xml version="1.0" encoding="iso-8859-1"?>
<!-- Uploaded to: SVG Repo, www.svgrepo.com, Generator: SVG Repo Mixer Tools -->
<svg fill="#000000" version="1.1" id="Layer_1" xmlns="http://www.w3.org/2000/svg" xmlns:xlink="http://www.w3.org/1999/xlink" 
	 viewBox="0 0 511.999 511.999" xml:space="preserve">
<g>
	<g>
		<path d="M414.432,196.922c0-15.04-11.803-27.323-26.653-28.092c7.852-8.213,10.238-20.735,5.041-31.591
			c-4.49-9.379-13.501-15.126-23.172-15.894c-5.584-12.444-12.582-24.027-20.901-34.427c-6.856-8.57-14.371-16.061-22.411-22.411
			l2.572-5.374c6.709-14.014,0.787-30.812-13.228-37.521c-10.854-5.196-23.378-2.81-31.591,5.041C283.322,11.803,271.04,0,255.999,0
			c-15.04,0-27.323,11.803-28.092,26.652c-8.213-7.851-20.735-10.238-31.591-5.041c-14.014,6.709-19.935,23.508-13.226,37.521
			l2.572,5.374c-8.04,6.35-15.555,13.841-22.411,22.411c-8.32,10.4-15.317,21.982-20.901,34.426
			c-9.669,0.77-18.682,6.515-23.17,15.894c-5.197,10.855-2.811,23.377,5.041,31.591c-14.851,0.771-26.654,13.053-26.654,28.093
			c0,15.04,11.803,27.323,26.653,28.092c-7.852,8.213-10.238,20.735-5.041,31.591c4.491,9.381,13.504,15.128,23.177,15.894
			c7.844,17.509,18.452,33.24,31.475,46.261c23.961,23.957,37.158,55.215,37.158,88.016v59.418c0,12.853,5.343,25.189,14.657,33.845
			c8.371,7.779,19.024,11.959,30.302,11.959c1.12,0,2.248-0.042,3.378-0.125c23.374-1.717,41.684-21.434,41.684-44.889v-60.208
			c0-32.8,13.196-64.059,37.158-88.016c13.023-13.021,23.632-28.752,31.476-46.261c9.673-0.766,18.686-6.514,23.178-15.894
			c5.195-10.855,2.81-23.377-5.041-31.591C402.629,224.245,414.432,211.963,414.432,196.922z M267.252,406.779v60.208
			c0,5.864-4.569,10.794-10.4,11.222c-3.909,0.281-6.635-1.417-8.228-2.898c-2.464-2.29-3.878-5.613-3.878-9.115v-59.418
			c0-18.772-3.377-37.119-9.831-54.389c6.899,1.36,13.941,2.07,21.084,2.07c7.141,0,14.183-0.699,21.079-2.057
			C270.627,369.67,267.252,388.014,267.252,406.779z M255.999,320.702c-52.74,0-95.648-55.528-95.648-123.78
			s42.908-123.78,95.648-123.78s95.648,55.528,95.648,123.78S308.74,320.702,255.999,320.702z"/>
	</g>
</g>
<g>
	<g>
		
			<rect x="181.092" y="163.164" transform="matrix(0.7071 -0.7071 0.7071 0.7071 -55.6246 225.7959)" width="127.312" height="33.758"/>
	</g>
</g>
<g>
	<g>
		
			<rect x="257.93" y="208.173" transform="matrix(0.7071 -0.7071 0.7071 0.7071 -74.2675 270.8065)" width="63.656" height="33.758"/>
	</g>
</g>
</svg>