<svg width="142" height="142" viewBox="0 0 142 142" fill="none" xmlns="http://www.w3.org/2000/svg">
<path d="M67.0285 137.547C66.3224 137.519 65.7317 137.356 65.2564 137.057C64.7742 136.765 64.5445 136.329 64.5673 135.749L66.4158 135.822C66.4082 136.015 66.4895 136.155 66.6595 136.242C66.7768 136.313 66.9254 136.352 67.1052 136.359C67.5849 136.378 67.8291 136.274 67.8381 136.048C67.843 135.921 67.7633 135.828 67.5989 135.768C67.4344 135.708 67.1635 135.641 66.7862 135.566C66.3225 135.481 65.9359 135.386 65.6265 135.28C65.3168 135.181 65.05 135.011 64.826 134.768C64.6018 134.533 64.4978 134.208 64.514 133.795C64.5405 133.123 64.8125 132.653 65.33 132.386C65.8409 132.12 66.5027 132.002 67.3154 132.034C67.7817 132.053 68.2189 132.133 68.6269 132.276C69.0347 132.425 69.3631 132.642 69.6122 132.925C69.8612 133.209 69.9775 133.56 69.961 133.98L68.1124 133.907L68.114 133.867C68.1162 133.64 68.0293 133.477 67.8531 133.376C67.67 133.282 67.4752 133.231 67.2686 133.223C66.7157 133.202 66.4342 133.321 66.424 133.58C66.4187 133.714 66.5015 133.814 66.6724 133.88C66.8432 133.947 67.1238 134.022 67.5142 134.104C67.9841 134.202 68.3703 134.304 68.6731 134.409C68.9692 134.514 69.2262 134.681 69.444 134.91C69.6616 135.146 69.7625 135.463 69.7468 135.863C69.7214 136.509 69.4602 136.959 68.9631 137.213C68.4594 137.467 67.8145 137.578 67.0285 137.547Z" fill="#241352"/>
<path d="M55.5864 135.816C54.801 135.632 54.1928 135.349 53.7619 134.967C53.3295 134.592 53.1825 134.109 53.3209 133.518L53.791 131.512C53.8169 131.402 53.8122 131.305 53.777 131.222C53.7418 131.138 53.6723 131.084 53.5684 131.06L53.2179 130.978L53.4804 129.858C53.5029 129.849 53.5601 129.839 53.6521 129.826C53.7361 129.819 53.8558 129.819 54.0111 129.828C54.168 129.831 54.3438 129.855 54.5386 129.901C54.915 129.989 55.2136 130.117 55.4344 130.285C55.6472 130.458 55.7754 130.656 55.8192 130.879C56.1114 130.742 56.4238 130.651 56.7563 130.605C57.0887 130.56 57.4594 130.585 57.8683 130.681C59.0756 130.964 59.5667 131.586 59.3415 132.546C59.2244 133.046 59.0023 133.395 58.6753 133.592C58.3403 133.794 57.9083 133.885 57.3792 133.863C56.8501 133.842 56.1766 133.736 55.3588 133.544L55.2995 133.797C55.2523 133.998 55.2879 134.167 55.4064 134.305C55.5184 134.441 55.6847 134.534 55.9054 134.586C56.1066 134.633 56.2902 134.639 56.4562 134.602C56.6158 134.564 56.7138 134.467 56.7503 134.312L56.7594 134.273L58.6677 134.72C58.6666 134.754 58.6592 134.8 58.6455 134.859C58.5314 135.345 58.2105 135.678 57.6827 135.855C57.1484 136.031 56.4496 136.018 55.5864 135.816ZM55.5733 132.629C56.125 132.758 56.5484 132.792 56.8434 132.731C57.1304 132.675 57.2975 132.547 57.3447 132.345C57.4207 132.021 57.2381 131.807 56.7967 131.703C56.5436 131.644 56.3069 131.66 56.0867 131.753C55.8601 131.843 55.7232 131.989 55.676 132.19L55.5733 132.629Z" fill="#241352"/>
<path d="M47.9932 127.837L45.1881 134.522L43.3531 133.752L46.1582 127.067L47.9932 127.837Z" fill="#241352"/>
<path d="M34.9158 127.226C34.1328 126.73 33.6454 126.141 33.4536 125.46C33.2525 124.78 33.3927 124.06 33.874 123.3C34.3554 122.539 34.948 122.102 35.6518 121.987C36.3464 121.874 37.0851 122.066 37.8681 122.561C38.6511 123.057 39.1403 123.643 39.3357 124.319C39.5312 124.995 39.3864 125.716 38.9015 126.482C38.4166 127.248 37.8268 127.687 37.1322 127.8C36.4376 127.913 35.6988 127.721 34.9158 127.226ZM35.6378 126.085C36.1899 126.434 36.6674 126.291 37.0703 125.654L37.3751 125.173C37.7745 124.542 37.6981 124.052 37.1461 123.702C36.5884 123.349 36.1099 123.488 35.7106 124.119L35.4057 124.601C35.0028 125.237 35.0802 125.732 35.6378 126.085Z" fill="#241352"/>
<path d="M24.1487 118.804C23.7021 118.384 23.4837 117.945 23.4935 117.487C23.5032 117.029 23.7275 116.567 24.1662 116.101L26.5104 113.611L27.9594 114.975L25.7796 117.291C25.6242 117.456 25.5445 117.628 25.5405 117.807C25.5271 117.987 25.598 118.15 25.7534 118.296C25.933 118.465 26.1334 118.544 26.3547 118.533C26.5761 118.521 26.7667 118.431 26.9266 118.261L29.0515 116.003L30.5005 117.368L26.8813 121.212L25.6944 120.095L26.1482 119.423C25.8058 119.485 25.4561 119.463 25.0991 119.356C24.7373 119.244 24.4205 119.06 24.1487 118.804Z" fill="#241352"/>
<path d="M20.9344 110.207L19.6751 111.161L18.1349 109.129L19.3941 108.175L20.9344 110.207Z" fill="#241352"/>
<path d="M11.4193 101.912C11.0921 101.286 10.9399 100.692 10.9627 100.131C10.9765 99.567 11.2404 99.1508 11.7545 98.8822L12.6112 100.522C12.4398 100.611 12.3588 100.752 12.3682 100.942C12.3647 101.079 12.4046 101.228 12.4879 101.387C12.7102 101.813 12.9218 101.973 13.1227 101.868C13.235 101.809 13.2762 101.694 13.2462 101.521C13.2163 101.349 13.14 101.081 13.0172 100.716C12.8602 100.271 12.7505 99.8887 12.6881 99.5678C12.6198 99.25 12.635 98.9336 12.7338 98.6188C12.8266 98.307 13.0562 98.0554 13.4226 97.864C14.0194 97.5522 14.5621 97.5544 15.0508 97.8707C15.5364 98.1811 15.9676 98.6968 16.3442 99.4176C16.5603 99.8312 16.7079 100.251 16.7871 100.676C16.8603 101.104 16.836 101.496 16.7141 101.853C16.5923 102.21 16.3452 102.486 15.973 102.68L15.1163 101.041L15.1517 101.022C15.3495 100.911 15.4481 100.755 15.4475 100.552C15.4379 100.346 15.3852 100.152 15.2895 99.9687C15.0332 99.4783 14.7899 99.2933 14.5595 99.4137C14.4413 99.4754 14.3957 99.597 14.4228 99.7784C14.4499 99.9598 14.525 100.24 14.6481 100.62C14.7964 101.076 14.9001 101.462 14.9594 101.777C15.0156 102.086 14.9987 102.392 14.9087 102.695C14.8128 103.001 14.5875 103.246 14.233 103.432C13.6599 103.731 13.1395 103.728 12.6719 103.424C12.2011 103.113 11.7836 102.609 11.4193 101.912Z" fill="#241352"/>
<path d="M6.37219 89.1795L7.65928 88.7722L7.99719 89.84L9.91353 89.2335C10.1423 89.1611 10.2987 89.0697 10.3826 88.9592C10.4602 88.8508 10.4668 88.6949 10.4024 88.4915L10.2335 87.9576L11.349 87.6046C11.4481 87.741 11.5517 87.925 11.6599 88.1565C11.7682 88.3879 11.8504 88.5927 11.9067 88.7706C12.0837 89.3299 12.1188 89.7943 12.012 90.1638C11.9031 90.5269 11.604 90.7859 11.1146 90.9407L8.59758 91.7372L8.82083 92.4428L7.53374 92.8501L7.28635 92.0683L5.63117 92.141L5.18465 90.73L6.7101 90.2473L6.37219 89.1795Z" fill="#241352"/>
<path d="M9.30346 77.9264C10.0729 78.1004 10.6722 78.3607 11.1014 78.7074C11.5363 79.0467 11.8005 79.5699 11.894 80.2771C11.9508 80.7067 11.9416 81.0946 11.8663 81.4408L10.6866 81.5968L10.5817 80.8037C10.5161 80.308 10.236 80.0458 9.74132 80.0171L4.78219 82.7911L4.50164 80.6696L7.84894 79.2082L7.83976 79.1388L4.23814 78.6769L3.98119 76.7339L9.30346 77.9264Z" fill="#241352"/>
<path d="M9.01813 69.6992L1.77272 69.4414L1.84349 67.4526L9.0889 67.7104L9.01813 69.6992Z" fill="#241352"/>
<path d="M4.96196 57.2518C5.15648 56.3049 5.52675 55.6289 6.07277 55.2238C6.62013 54.8122 7.35093 54.7003 8.26517 54.8881L8.59821 54.9565L7.80134 58.8355C8.17357 58.912 8.47114 58.8881 8.69405 58.7637C8.91831 58.6328 9.06733 58.3878 9.14112 58.0286C9.2082 57.7021 9.18859 57.4497 9.08231 57.2713C8.97737 57.0864 8.81063 56.9705 8.58207 56.9235L8.97044 55.033C9.59735 55.1618 10.0382 55.5008 10.2929 56.0499C10.5476 56.5991 10.581 57.3308 10.3932 58.245C10.196 59.205 9.82102 59.9038 9.26829 60.3415C8.70904 60.7779 7.97556 60.9029 7.06784 60.7164C6.17972 60.534 5.5601 60.1378 5.20896 59.528C4.85782 58.9182 4.77549 58.1595 4.96196 57.2518ZM6.22208 57.429C6.09597 58.0428 6.31614 58.4454 6.88258 58.6366L7.27297 56.7363C7.00523 56.6813 6.77689 56.716 6.58797 56.8406C6.40039 56.9586 6.27842 57.1547 6.22208 57.429Z" fill="#241352"/>
<path d="M13.1049 37.4088C12.9497 36.8743 13.0272 36.3463 13.3374 35.825C13.7021 35.2119 14.1839 34.8586 14.7826 34.7649C15.3756 34.6678 16.0617 34.851 16.8409 35.3146C17.6259 35.7816 18.12 36.3005 18.3233 36.8715C18.5267 37.4424 18.446 38.0343 18.0813 38.6474C17.7063 39.2776 17.1707 39.6106 16.4746 39.6463L17.0322 40.1759L16.2039 41.5681L9.97325 37.8612L10.9908 36.151L13.1049 37.4088ZM14.2837 37.1094C14.1337 37.3615 14.1129 37.6051 14.2212 37.8402C14.3238 38.0719 14.5184 38.273 14.8048 38.4435L15.0885 38.6122C15.3749 38.7826 15.6445 38.8577 15.8971 38.8373C16.1497 38.8169 16.3509 38.6807 16.5009 38.4286C16.7941 37.9359 16.6485 37.5157 16.0641 37.168L15.6086 36.897C15.0185 36.5459 14.5768 36.6167 14.2837 37.1094Z" fill="#241352"/>
<path d="M20.4694 26.1535C21.1124 25.4316 21.7716 25.0323 22.4471 24.9554C23.127 24.8736 23.8155 25.1431 24.5125 25.7638L24.7664 25.9899L22.1326 28.9471C22.4164 29.1999 22.6859 29.3283 22.9411 29.3324C23.2008 29.3316 23.4525 29.1942 23.6964 28.9204C23.9181 28.6715 24.0277 28.4432 24.0251 28.2356C24.027 28.023 23.9408 27.8391 23.7665 27.6839L25.0501 26.2427C25.5281 26.6683 25.7396 27.1826 25.6848 27.7854C25.6299 28.3883 25.2921 29.0382 24.6714 29.7352C24.0196 30.467 23.3449 30.8838 22.6472 30.9856C21.9445 31.0829 21.2472 30.8234 20.5552 30.207C19.8781 29.604 19.5405 28.9507 19.5423 28.247C19.5441 27.5433 19.8531 26.8455 20.4694 26.1535ZM21.471 26.9384C21.0542 27.4064 21.043 27.8651 21.4373 28.3145L22.7276 26.8657C22.5235 26.684 22.3085 26.5996 22.0826 26.6127C21.8611 26.6208 21.6573 26.7293 21.471 26.9384Z" fill="#241352"/>
<path d="M29.7106 17.5239C30.3516 17.0342 30.9564 16.7443 31.525 16.6539C32.0895 16.5583 32.5559 16.7516 32.9241 17.2337L34.1745 18.8708C34.2433 18.9608 34.3212 19.0188 34.4081 19.0447C34.495 19.0706 34.5808 19.0512 34.6656 18.9865L34.9517 18.768L35.6497 19.6819C35.6419 19.7046 35.6137 19.7555 35.565 19.8346C35.5177 19.9044 35.4411 19.9964 35.3355 20.1106C35.2338 20.2302 35.1036 20.3507 34.9446 20.4721C34.6373 20.7068 34.3486 20.856 34.0785 20.9197C33.8096 20.9741 33.5754 20.9474 33.3758 20.8399C33.2959 21.1526 33.1678 21.4517 32.9916 21.7373C32.8155 22.0228 32.5605 22.2931 32.2267 22.548C31.2413 23.3007 30.4491 23.285 29.8502 22.5008C29.5386 22.0929 29.4105 21.7 29.4659 21.3222C29.5225 20.935 29.727 20.5439 30.0796 20.1487C30.4321 19.7536 30.9422 19.3011 31.6097 18.7913L31.4519 18.5846C31.3265 18.4204 31.1731 18.3404 30.9918 18.3447C30.8158 18.3449 30.6377 18.4138 30.4576 18.5514C30.2934 18.6768 30.1726 18.8152 30.0952 18.9666C30.0232 19.1139 30.0357 19.2511 30.1328 19.3782L30.1571 19.41L28.5995 20.5997C28.574 20.5773 28.543 20.5422 28.5066 20.4946C28.2031 20.0972 28.1504 19.6383 28.3485 19.1179C28.5519 18.5934 29.0059 18.0621 29.7106 17.5239ZM32.1803 19.5383C31.73 19.8823 31.4346 20.1875 31.2943 20.4541C31.1552 20.7113 31.1484 20.9221 31.2739 21.0863C31.4762 21.3512 31.7575 21.3461 32.1178 21.0709C32.3244 20.9131 32.462 20.7199 32.5307 20.4913C32.6047 20.2586 32.5789 20.0602 32.4535 19.8959L32.1803 19.5383Z" fill="#241352"/>
<path d="M44.013 15.024L43.5405 14.3655C43.483 14.7142 43.3392 15.0388 43.1089 15.3394C42.8817 15.6311 42.6009 15.86 42.2666 16.0262C41.7174 16.2993 41.2298 16.3518 40.8038 16.1839C40.3779 16.016 40.0225 15.6454 39.7375 15.0724L38.2151 12.0099L39.997 11.124L41.4126 13.9716C41.5135 14.1745 41.6459 14.3135 41.8097 14.3884C41.9765 14.4544 42.1554 14.4399 42.3465 14.3449C42.5673 14.2351 42.7108 14.0744 42.7769 13.8629C42.843 13.6513 42.8241 13.4411 42.7202 13.2322L41.3402 10.4563L43.1221 9.57041L45.4726 14.2984L44.013 15.024Z" fill="#241352"/>
<path d="M53.2585 5.98614L53.6398 7.28117L52.5654 7.59753L53.1332 9.52568C53.201 9.7559 53.2892 9.91408 53.398 10.0002C53.5049 10.0799 53.6606 10.0897 53.8653 10.0294L54.4025 9.87122L54.733 10.9936C54.5945 11.0899 54.4085 11.1899 54.1749 11.2934C53.9413 11.3969 53.735 11.4751 53.5559 11.5278C52.9932 11.6935 52.5282 11.7192 52.1609 11.605C51.8001 11.4888 51.5472 11.1846 51.4022 10.6921L50.6565 8.15964L49.9466 8.36866L49.5653 7.07364L50.3519 6.84201L50.3124 5.18571L51.7322 4.76766L52.1841 6.3025L53.2585 5.98614Z" fill="#241352"/>
<path d="M64.4503 9.14315C64.2609 9.90894 63.9885 10.5029 63.6332 10.925C63.2853 11.353 62.7569 11.6066 62.048 11.6859C61.6173 11.734 61.2297 11.717 60.8851 11.6348L60.7528 10.4522L61.5479 10.3633C62.0448 10.3077 62.3126 10.0329 62.3512 9.53887L59.6775 4.52496L61.8042 4.28713L63.198 7.66315L63.2676 7.65537L63.8017 4.06375L65.7496 3.84593L64.4503 9.14315Z" fill="#241352"/>
<path d="M85.091 5.19181C85.8777 5.37 86.488 5.64834 86.9218 6.02684C87.357 6.39884 87.5076 6.88068 87.3736 7.47236L86.9186 9.48147C86.8936 9.59201 86.899 9.68892 86.9348 9.77223C86.9706 9.85553 87.0405 9.90896 87.1445 9.93252L87.4957 10.012L87.2416 11.1336C87.2192 11.1422 87.162 11.1532 87.0701 11.1666C86.9862 11.1749 86.8665 11.1751 86.7111 11.1673C86.5542 11.1659 86.3782 11.1431 86.1831 11.099C85.806 11.0136 85.5064 10.8876 85.2844 10.7211C85.0703 10.5496 84.9406 10.3527 84.8952 10.1306C84.604 10.2697 84.2923 10.3631 83.9602 10.411C83.6281 10.4588 83.2572 10.4363 82.8476 10.3435C81.6382 10.0696 81.1425 9.45152 81.3605 8.48923C81.4739 7.98858 81.6933 7.6384 82.0188 7.43869C82.3523 7.23396 82.7836 7.14026 83.3129 7.1576C83.8421 7.17493 84.5163 7.27637 85.3356 7.46192L85.393 7.20834C85.4387 7.00678 85.4018 6.83778 85.2823 6.70135C85.1693 6.5664 85.0023 6.47388 84.7812 6.42382C84.5796 6.37816 84.396 6.37417 84.2302 6.41182C84.071 6.45094 83.9737 6.54853 83.9384 6.70458L83.9295 6.74359L82.0179 6.31064C82.0188 6.27666 82.0259 6.23041 82.0391 6.17189C82.1496 5.68424 82.468 5.34965 82.9944 5.16812C83.5274 4.98806 84.2262 4.99596 85.091 5.19181ZM85.128 8.3787C84.5753 8.25353 84.1517 8.22252 83.8571 8.28568C83.5705 8.34381 83.4044 8.47366 83.3588 8.67522C83.2851 9.00032 83.4694 9.21294 83.9115 9.31308C84.1651 9.37051 84.4016 9.35231 84.6211 9.25847C84.8471 9.16611 84.9829 9.01914 85.0286 8.81758L85.128 8.3787Z" fill="#241352"/>
<path d="M98.1741 9.54622C98.7357 9.79275 99.0886 10.1333 99.2327 10.5679C99.3769 11.0025 99.3203 11.5128 99.0631 12.0988L97.6884 15.2304L95.8662 14.4305L97.1444 11.5187C97.2355 11.3112 97.2529 11.1222 97.1966 10.9519C97.1491 10.7782 97.0277 10.6484 96.8324 10.5627C96.6065 10.4635 96.3912 10.4564 96.1865 10.5413C95.9818 10.6261 95.8326 10.7754 95.7388 10.989L94.4927 13.8276L92.6706 13.0277L94.7928 8.19303L96.2854 8.8482L96.0828 9.63298C96.3846 9.45966 96.7216 9.36369 97.0938 9.34506C97.4721 9.32911 97.8322 9.39616 98.1741 9.54622Z" fill="#241352"/>
<path d="M106.264 20.1956C105.618 20.6491 105.023 20.9185 104.478 21.0038C103.934 21.0983 103.369 20.9429 102.782 20.5375C102.426 20.2912 102.144 20.0239 101.938 19.7357L102.615 18.7566L103.273 19.2113C103.684 19.4955 104.067 19.4639 104.42 19.1166L105.693 13.5788L107.454 14.7951L106.29 18.2571L106.348 18.2969L109.108 15.9376L110.72 17.0516L106.264 20.1956Z" fill="#241352"/>
<path d="M115.945 28.942L117.533 26.3357L117.506 26.3064L114.791 27.7072L113.466 26.2896L116.007 21.2747L117.468 22.8383L115.734 25.553L115.782 25.6041L118.628 24.0805L119.98 25.5272L118.247 28.2419L118.294 28.293L121.127 26.7548L122.452 28.1723L117.269 30.3595L115.945 28.942Z" fill="#241352"/>
<path d="M127.085 35.8839C127.378 35.9582 127.646 36.0895 127.89 36.278C128.14 36.463 128.345 36.6901 128.505 36.9594C128.818 37.4865 128.908 37.9687 128.772 38.4061C128.637 38.8435 128.294 39.2258 127.744 39.5531L124.805 41.3017L123.787 39.5915L126.52 37.9656C126.715 37.8497 126.839 37.7061 126.892 37.5348C126.955 37.3658 126.931 37.1896 126.822 37.0063C126.696 36.7943 126.525 36.6633 126.309 36.6134C126.093 36.5634 125.885 36.5981 125.685 36.7174L123.02 38.3024L122.003 36.5922L128.234 32.8852L129.251 34.5955L127.085 35.8839Z" fill="#241352"/>
<path d="M133.52 47.7043C133.847 48.6137 133.884 49.3836 133.629 50.0139C133.376 50.6506 132.811 51.127 131.933 51.4434L131.613 51.5586L130.271 47.833C129.914 47.9618 129.672 48.1374 129.547 48.3597C129.424 48.5883 129.424 48.8751 129.548 49.2201C129.661 49.5337 129.81 49.7389 129.993 49.8357C130.179 49.9388 130.382 49.9508 130.602 49.8717L131.256 51.6874C130.654 51.9043 130.101 51.8449 129.597 51.509C129.093 51.1732 128.683 50.5662 128.367 49.6882C128.035 48.7662 127.991 47.9743 128.234 47.3126C128.484 46.6487 129.045 46.1597 129.916 45.8456C130.769 45.5383 131.505 45.5533 132.122 45.8906C132.74 46.2279 133.206 46.8325 133.52 47.7043ZM132.352 48.21C132.14 47.6204 131.742 47.3917 131.159 47.5238L131.816 49.349C132.073 49.2563 132.25 49.1076 132.346 48.9029C132.445 48.7044 132.447 48.4734 132.352 48.21Z" fill="#241352"/>
<path d="M136.799 60.4678C136.825 60.6189 136.829 60.757 136.81 60.8821C136.797 61.006 136.788 61.0685 136.781 61.0696L135.135 61.3535L135.027 60.7228C134.956 60.3155 134.8 60.038 134.558 59.8903C134.317 59.7492 133.99 59.7143 133.576 59.7857L131.26 60.1851L130.922 58.2241L136.125 57.3266L136.402 58.9329L135.636 59.197C135.959 59.2631 136.218 59.4113 136.413 59.6414C136.615 59.8705 136.743 60.1459 136.799 60.4678Z" fill="#241352"/>
<path d="M137.541 70.6706C137.537 71.6372 137.307 72.3729 136.852 72.8777C136.396 73.3891 135.702 73.6428 134.768 73.6389L134.428 73.6375L134.445 69.6775C134.065 69.6759 133.778 69.7581 133.584 69.9239C133.39 70.0964 133.292 70.366 133.291 70.7327C133.289 71.066 133.358 71.3096 133.498 71.4636C133.637 71.6241 133.823 71.7049 134.056 71.7059L134.048 73.6359C133.408 73.6332 132.909 73.3878 132.551 72.8996C132.194 72.4114 132.017 71.7007 132.02 70.7673C132.025 69.7874 132.254 69.0283 132.71 68.4902C133.172 67.9522 133.867 67.6851 134.793 67.689C135.7 67.6928 136.386 67.959 136.85 68.4876C137.314 69.0163 137.545 69.7439 137.541 70.6706ZM136.271 70.7452C136.273 70.1185 135.978 69.7673 135.385 69.6915L135.377 71.6315C135.65 71.6326 135.867 71.5535 136.028 71.3942C136.188 71.2415 136.269 71.0252 136.271 70.7452Z" fill="#241352"/>
<path d="M128.561 91.7303C127.953 91.2269 127.537 90.7235 127.311 90.22C127.077 89.7207 127.078 89.1345 127.315 88.4616C127.459 88.0528 127.642 87.7111 127.866 87.4365L128.989 87.8315L128.723 88.5861C128.557 89.0578 128.688 89.4184 129.117 89.668L134.794 89.4393L134.084 91.458L130.438 91.2459L130.414 91.3119L133.417 93.3541L132.766 95.203L128.561 91.7303Z" fill="#241352"/>
<path d="M128.467 104.215C128 105.015 127.429 105.523 126.754 105.739C126.082 105.964 125.357 105.849 124.581 105.394C123.804 104.94 123.346 104.363 123.206 103.664C123.069 102.974 123.235 102.229 123.703 101.429C124.17 100.629 124.739 100.119 125.407 99.9003C126.076 99.6812 126.802 99.8006 127.584 100.258C128.367 100.716 128.827 101.29 128.964 101.98C129.101 102.67 128.935 103.416 128.467 104.215ZM127.302 103.534C127.632 102.97 127.472 102.498 126.821 102.117L126.329 101.83C125.685 101.453 125.198 101.546 124.868 102.11C124.535 102.68 124.69 103.153 125.335 103.53L125.827 103.818C126.477 104.198 126.969 104.104 127.302 103.534Z" fill="#241352"/>
<path d="M116.245 111.853L116.932 112.283C116.853 111.939 116.863 111.584 116.961 111.218C117.061 110.862 117.234 110.544 117.48 110.263C117.885 109.802 118.316 109.568 118.774 109.562C119.231 109.556 119.701 109.764 120.182 110.186L122.753 112.441L121.44 113.937L119.05 111.84C118.88 111.69 118.704 111.612 118.524 111.605C118.345 111.607 118.185 111.689 118.044 111.849C117.882 112.034 117.81 112.238 117.829 112.458C117.848 112.679 117.946 112.866 118.121 113.02L120.451 115.065L119.139 116.561L115.17 113.079L116.245 111.853Z" fill="#241352"/>
<path d="M108.969 120.06L112.7 126.276L110.993 127.3L107.263 121.084L108.969 120.06Z" fill="#241352"/>
<path d="M103.482 129.649L104.004 130.894L102.169 131.664L101.647 130.419L103.482 129.649ZM101.199 124.209L103.242 129.078L101.407 129.848L99.3644 124.979L101.199 124.209Z" fill="#241352"/>
<path d="M91.6489 134.212L89.3902 134.741L90.8026 132.223L88.1366 129.612L90.3369 129.096L91.8307 130.605L92.3496 129.795L92.0895 128.686L94.0269 128.231L95.6837 135.3L93.7462 135.754L92.8334 131.86L91.6489 134.212Z" fill="#241352"/>
<path d="M81.9581 136.525C80.9921 136.563 80.2471 136.366 79.723 135.933C79.1923 135.5 78.9086 134.817 78.8719 133.884L78.8585 133.545L82.8154 133.389C82.8005 133.009 82.706 132.726 82.5318 132.54C82.351 132.353 82.0774 132.267 81.7111 132.282C81.378 132.295 81.1376 132.374 80.9899 132.52C80.8355 132.666 80.7629 132.856 80.7721 133.089L78.8436 133.165C78.8184 132.526 79.0419 132.016 79.514 131.637C79.9862 131.259 80.6886 131.051 81.6212 131.014C82.6004 130.976 83.3687 131.172 83.9261 131.604C84.4838 132.042 84.7808 132.725 84.8173 133.651C84.8529 134.557 84.6168 135.253 84.1089 135.74C83.6009 136.227 82.884 136.489 81.9581 136.525ZM81.8282 135.259C82.4544 135.235 82.7924 134.924 82.8424 134.329L80.9039 134.405C80.9146 134.678 81.0031 134.891 81.1693 135.045C81.3288 135.199 81.5484 135.27 81.8282 135.259Z" fill="#241352"/>
<path d="M22.7702 57.5249C23.6058 56.933 24.4888 56.6018 25.419 56.5311C26.34 56.4473 27.2238 56.6155 28.0703 57.0355C28.9075 57.4425 29.622 58.0638 30.2139 58.8994L30.3942 59.154C30.9861 59.9896 31.3396 60.8764 31.4549 61.8143C31.5702 62.7522 31.4402 63.6482 31.0647 64.5023C30.6801 65.3433 30.0699 66.0597 29.2343 66.6516L26.0027 68.9404L29.0822 73.2883L24.7539 76.3539L15.2103 62.8793L22.7702 57.5249ZM23.7694 65.7872L25.5517 64.5249C26.0087 64.2012 26.2649 63.8432 26.3204 63.451C26.389 63.0495 26.2799 62.6464 25.9933 62.2416L25.8823 62.085C25.5864 61.6671 25.2423 61.4305 24.85 61.375C24.4616 61.2972 24.0389 61.4201 23.5819 61.7438L21.7997 63.0061L23.7694 65.7872Z" fill="url(#paint0_angular_627_542)" fill-opacity="0.7"/>
<path d="M41.1934 53.9609C43.0485 53.407 44.6525 53.2704 46.0053 53.5511C47.3536 53.8164 48.236 54.6466 48.6526 56.0418L50.0671 60.7791C50.145 61.0397 50.2704 61.236 50.4434 61.3681C50.6164 61.5001 50.8255 61.5295 51.0708 61.4562L51.8987 61.209L52.6884 63.8536C52.6515 63.898 52.5449 63.9883 52.3685 64.1245C52.2028 64.2407 51.9529 64.3822 51.6185 64.5488C51.2888 64.7307 50.894 64.8904 50.4341 65.0277C49.5448 65.2932 48.77 65.3826 48.1096 65.296C47.46 65.1894 46.9569 64.9305 46.6003 64.5193C46.1551 65.1532 45.6134 65.7157 44.9752 66.2068C44.3371 66.6979 43.535 67.0877 42.5692 67.3761C39.7176 68.2276 37.953 67.5188 37.2755 65.2498C36.923 64.0693 36.9695 63.0786 37.415 62.2776C37.8712 61.4568 38.6629 60.7529 39.7901 60.1658C40.9172 59.5788 42.4467 58.9969 44.3784 58.4201L44.1999 57.8222C44.058 57.3469 43.7817 57.037 43.3712 56.8924C42.976 56.7432 42.5178 56.7465 41.9965 56.9021C41.5213 57.044 41.1325 57.2519 40.8302 57.5259C40.5433 57.7952 40.4548 58.1139 40.5646 58.4818L40.5921 58.5738L36.0847 59.9197C36.0465 59.8476 36.0068 59.7426 35.9656 59.6046C35.6223 58.4547 35.8942 57.38 36.7812 56.3804C37.6837 55.3763 39.1544 54.5698 41.1934 53.9609ZM45.0239 60.5818C43.7207 60.9709 42.7983 61.4049 42.2567 61.8839C41.7259 62.343 41.5314 62.8101 41.6733 63.2854C41.9022 64.052 42.5379 64.2796 43.5804 63.9683C44.1784 63.7898 44.6516 63.4732 45 63.0185C45.3638 62.5592 45.4748 62.0919 45.3329 61.6166L45.0239 60.5818Z" fill="url(#paint1_angular_627_542)" fill-opacity="0.7"/>
<path d="M72.798 53.303C74.2335 53.4172 75.2771 53.9176 75.9288 54.8041C76.5818 55.6746 76.848 56.8675 76.7275 58.3827L76.0764 66.5648L71.3155 66.186L71.9208 58.578C71.964 58.0358 71.8627 57.5943 71.6169 57.2538C71.3884 56.8985 71.0349 56.7019 70.5564 56.6638C69.9981 56.6194 69.5283 56.7746 69.147 57.1295C68.7656 57.4843 68.5528 57.9409 68.5083 58.4991L67.9182 65.9157L63.1573 65.5369L63.7626 57.9289C63.8058 57.3866 63.7045 56.9452 63.4587 56.6046C63.2302 56.2494 62.8766 56.0527 62.3982 56.0147C61.8399 55.9702 61.3701 56.1255 60.9888 56.4803C60.6074 56.8352 60.3945 57.2918 60.3501 57.85L59.76 65.2666L54.9991 64.8877L56.0042 52.2557L59.9038 52.566L60.0645 54.4807C60.5963 53.8489 61.2681 53.3727 62.0801 53.0521C62.9093 52.7168 63.7626 52.5841 64.6398 52.6539C66.5378 52.8049 67.756 53.6321 68.2945 55.1356C68.8422 54.505 69.5141 54.0288 70.3101 53.7069C71.1234 53.3704 71.9527 53.2357 72.798 53.303Z" fill="url(#paint2_angular_627_542)" fill-opacity="0.7"/>
<path d="M91.7838 59.333C93.3261 60.076 94.2723 61.1534 94.6222 62.5652C94.9721 63.977 94.6713 65.6703 93.7199 67.6451C92.7755 69.6054 91.6422 70.8887 90.32 71.4949C89.0048 72.0867 87.576 72.0111 86.0337 71.268C84.7076 70.6291 83.8493 69.6828 83.4587 68.4291L80.9066 73.7263L76.6039 71.6534L84.1561 55.9778L87.6588 57.6653L87.2451 59.464C88.6853 58.6127 90.1982 58.5691 91.7838 59.333ZM88.912 61.8655C88.2778 61.5599 87.6944 61.5542 87.162 61.8482C86.6296 62.1423 86.1898 62.6497 85.8426 63.3704L85.4989 64.0839C85.1516 64.8046 85.0255 65.472 85.1204 66.0861C85.2222 66.6857 85.5902 67.1383 86.2245 67.4438C87.4641 68.0411 88.4415 67.5973 89.1568 66.1127L89.7089 64.9667C90.4173 63.4965 90.1516 62.4627 88.912 61.8655Z" fill="url(#paint3_angular_627_542)" fill-opacity="0.7"/>
<path d="M69.6355 76.056C70.2913 75.749 70.9889 75.5848 71.7284 75.5633C72.4734 75.5269 73.1994 75.6367 73.9064 75.8928C75.2904 76.3941 76.1895 77.1537 76.6036 78.1716C77.0177 79.1894 76.9632 80.4205 76.4401 81.8646L73.6447 89.582L69.1542 87.9555L71.7534 80.7797C71.9387 80.2682 71.9504 79.813 71.7886 79.414C71.6473 79.0055 71.3359 78.714 70.8545 78.5397C70.2979 78.338 69.7812 78.3551 69.3045 78.5908C68.8277 78.8265 68.4939 79.2077 68.3032 79.7342L65.7694 86.7294L61.2789 85.1029L67.2047 68.743L71.6952 70.3696L69.6355 76.056Z" fill="#241352"/>
<path d="M87.1746 78.8006C89.4936 78.8671 91.2453 79.4616 92.4296 80.584C93.6299 81.7069 94.1979 83.3879 94.1337 85.627L94.1103 86.4426L84.6102 86.1701C84.5841 87.0818 84.7643 87.7752 85.1508 88.2505C85.5533 88.7262 86.1944 88.9767 87.074 89.0019C87.8737 89.0249 88.4623 88.8737 88.8398 88.5484C89.2333 88.2235 89.438 87.7812 89.4541 87.2214L94.0842 87.3543C94.0401 88.8896 93.422 90.0724 92.2297 90.9025C91.0374 91.7327 89.3217 92.1157 87.0826 92.0514C84.7316 91.984 82.9239 91.3879 81.6597 90.2632C80.3958 89.1225 79.7958 87.4406 79.8596 85.2175C79.922 83.0424 80.601 81.4132 81.8966 80.3299C83.1922 79.2466 84.9515 78.7369 87.1746 78.8006ZM87.2791 81.8529C85.7757 81.8098 84.9157 82.4974 84.6989 83.9157L89.353 84.0492C89.3718 83.3935 89.1948 82.8682 88.822 82.4734C88.4651 82.079 87.9508 81.8721 87.2791 81.8529Z" fill="#241352"/>
<path d="M105.265 77.145C105.622 77.0551 105.952 77.0216 106.255 77.0443C106.554 77.0516 106.705 77.063 106.709 77.0785L107.688 80.9652L106.198 81.3402C105.236 81.5825 104.601 82.0065 104.291 82.6124C103.997 83.2144 103.973 84.0042 104.219 84.9817L105.597 90.4509L100.965 91.6172L97.8709 79.3288L101.664 78.3735L102.436 80.1592C102.535 79.3752 102.843 78.7285 103.358 78.2193C103.869 77.6945 104.505 77.3364 105.265 77.145Z" fill="#241352"/>
<path d="M114.27 73.2552C116.281 72.0983 118.085 71.6882 119.681 72.0249C121.292 72.3536 122.656 73.4888 123.772 75.4304L124.179 76.1377L115.941 80.877C116.396 81.6675 116.913 82.1641 117.491 82.3669C118.083 82.5616 118.76 82.4396 119.523 82.0008C120.216 81.6018 120.639 81.165 120.79 80.6903C120.955 80.2075 120.898 79.7235 120.619 79.238L124.634 76.9283C125.4 78.2597 125.492 79.591 124.911 80.9224C124.329 82.2537 123.068 83.4779 121.126 84.5949C119.087 85.7677 117.235 86.2058 115.569 85.9089C113.895 85.5983 112.504 84.479 111.395 82.5513C110.31 80.6651 110.036 78.9215 110.573 77.3204C111.11 75.7192 112.342 74.3642 114.27 73.2552ZM115.956 75.8014C114.653 76.5514 114.28 77.5874 114.837 78.9095L118.873 76.5878C118.546 76.0192 118.12 75.6642 117.596 75.5228C117.085 75.3734 116.539 75.4663 115.956 75.8014Z" fill="#241352"/>
<defs>
<radialGradient id="paint0_angular_627_542" cx="0" cy="0" r="1" gradientUnits="userSpaceOnUse" gradientTransform="translate(26.0252 65.6502) rotate(54.6914) scale(13 9)">
<stop offset="0.00520833" stop-color="#92C2FA"/>
<stop offset="0.302083" stop-color="#9C80DB"/>
<stop offset="0.520833" stop-color="#CCBBE6"/>
<stop offset="0.734375" stop-color="#F5C9D9"/>
<stop offset="1" stop-color="#6284FF"/>
</radialGradient>
<radialGradient id="paint1_angular_627_542" cx="0" cy="0" r="1" gradientUnits="userSpaceOnUse" gradientTransform="translate(43.3753 58.4858) rotate(73.3748) scale(13 8.5)">
<stop offset="0.00520833" stop-color="#92C2FA"/>
<stop offset="0.302083" stop-color="#9C80DB"/>
<stop offset="0.520833" stop-color="#CCBBE6"/>
<stop offset="0.734375" stop-color="#F5C9D9"/>
<stop offset="1" stop-color="#6284FF"/>
</radialGradient>
<radialGradient id="paint2_angular_627_542" cx="0" cy="0" r="1" gradientUnits="userSpaceOnUse" gradientTransform="translate(66.1603 57.7505) rotate(94.5493) scale(13 12)">
<stop offset="0.00520833" stop-color="#92C2FA"/>
<stop offset="0.302083" stop-color="#9C80DB"/>
<stop offset="0.520833" stop-color="#CCBBE6"/>
<stop offset="0.734375" stop-color="#F5C9D9"/>
<stop offset="1" stop-color="#6284FF"/>
</radialGradient>
<radialGradient id="paint3_angular_627_542" cx="0" cy="0" r="1" gradientUnits="userSpaceOnUse" gradientTransform="translate(88.467 63.2406) rotate(115.724) scale(13 8.5)">
<stop offset="0.00520833" stop-color="#92C2FA"/>
<stop offset="0.302083" stop-color="#9C80DB"/>
<stop offset="0.520833" stop-color="#CCBBE6"/>
<stop offset="0.734375" stop-color="#F5C9D9"/>
<stop offset="1" stop-color="#6284FF"/>
</radialGradient>
</defs>
</svg>
